<svg version="1.1" id="Graphics" xmlns="http://www.w3.org/2000/svg" x="0" y="0" viewBox="0 0 1177.3 770.1" xml:space="preserve"><style>.st1{fill:#4d5068}.st4{fill:#fff}.st5{fill:#f9f9fb}.st6{fill:#ffdfd6}.st8{fill:#f9fafc}.st9{fill:#dfe2ec}.st10{fill:#eceef4}.st16{fill:#ffcebd}.st17{fill:#ef5253}.st21{fill:#fe5e31}.st22{fill:#495057}.st26{fill:#191c3c}.st29{fill:#f5f7f9}.st31{fill:#b2b8fa}</style><g id="Layer_6"><linearGradient id="SVGID_1_" gradientUnits="userSpaceOnUse" x1="1061.418" y1="664.159" x2="1177.269" y2="664.159"><stop offset=".15" stop-color="#00adf2"/><stop offset=".551" stop-color="#27b8f3"/><stop offset="1" stop-color="#4ec4f4"/></linearGradient><path d="M1136.1 746c-.3.2-.6.3-1 .5-10 4.8-15.3 4-25-.5-9-4.1-17.7-9.1-25.1-15.6-9.4-8.3-16.7-19.5-18.2-32-.3-2.8-.3-5.9 1.3-8.1 2.3-3.1 7-3.6 10.6-2.2 3.6 1.4 6.4 4.2 9.3 6.8 1.2 1.1 2.5 2.2 4.1 2.6 1.6.4 3.5 0 4.3-1.4 1.3-2.3-.9-4.9-2.9-6.6-4.7-3.9-9.1-6.1-14-9.6-6.2-4.3-11.8-9.6-15.2-16.3s-4.1-15.1-.6-21.7c1.1-2 2.5-3.9 4.5-5.1 3.4-2.2 7.8-2.1 11.8-1.2 4 .8 7.8 2.4 11.8 2.8 9.5 1 13.3-5.7 13.1-14.5-.1-5.9-2-11.6-2.4-17.5-.6-10.4 4.5-21.4 13.9-25.8 9.4-4.4 22.5-.2 25.8 9.6 3.6 10.7-4.7 22.6.8 32.8 1.8 3.3 5.9 7.9 9 9.9 5.2 3.2 12.8-.6 18.9-.3 1.4.1 2.8.3 3.8 1.2.7.7 1 1.7 1.2 2.7 1.4 7.4-1.2 15.5-6.8 20.6-6.3 5.7-17.2 8.7-19.9 17.7-1.7 5.6-.9 19.5 7.9 18.1 3.3-.5 5.6-3.8 8.8-4.9 4-1.3 8.5 1.3 10.3 5.1 1.8 3.8 1.2 8.3-.3 12.2-2.4 6.1-7.1 11-11.7 15.8-9.5 9.4-15.6 18.8-28.1 24.9z" fill="url(#SVGID_1_)"/><path class="st1" d="M1120.7 616.2h4.4v149.9h-4.4z"/><path class="st1" d="M1122.9 682.1l-26.7-26.8 3.1-3 23.6 23.6 23.6-23.6 3.1 3zm0 50.5l-26.7-26.7 3.1-3.1 23.6 23.6 23.6-23.6 3.1 3.1z"/><path id="XMLID_385_" d="M1074.6 768.1H262.2V8.9c0-4.9 4-8.9 8.9-8.9h794.7c4.9 0 8.9 4 8.9 8.9v759.2z" fill="#f3f6fc"/><linearGradient id="XMLID_2_" gradientUnits="userSpaceOnUse" x1="262.156" y1="28.282" x2="1074.581" y2="28.282"><stop offset="0" stop-color="#5facec"/><stop offset=".646" stop-color="#3b97ed"/><stop offset="1" stop-color="#2c8fee"/></linearGradient><path id="XMLID_384_" d="M1074.6 56.6V10.5c0-5.8-4.7-10.5-10.5-10.5H272.6c-5.8 0-10.5 4.7-10.5 10.5v46.1h812.5z" fill="url(#XMLID_2_)"/><path id="XMLID_382_" class="st4" d="M320.8 26.7c0 3.8-3.1 7-7 7-3.8 0-7-3.1-7-7 0-3.8 3.1-7 7-7s7 3.1 7 7z"/><path id="XMLID_381_" class="st4" d="M344 26.7c0 3.8-3.1 7-7 7-3.8 0-7-3.1-7-7 0-3.8 3.1-7 7-7s7 3.1 7 7z"/><path id="XMLID_380_" class="st4" d="M367.2 26.7c0 3.8-3.1 7-7 7-3.8 0-7-3.1-7-7 0-3.8 3.1-7 7-7s7 3.1 7 7z"/><path class="st5" d="M390.9 132.7h54.2v54.2h-54.2z"/><path class="st6" d="M390.9 132.7h9.5v9.5h-9.5z"/><path class="st5" d="M463.5 132.7h54.2v54.2h-54.2z"/><path class="st6" d="M463.5 132.7h9.5v9.5h-9.5z"/><linearGradient id="SVGID_2_" gradientUnits="userSpaceOnUse" x1="563.223" y1="186.928" x2="563.223" y2="132.718"><stop offset=".15" stop-color="#00adf2"/><stop offset=".551" stop-color="#27b8f3"/><stop offset="1" stop-color="#4ec4f4"/></linearGradient><path fill="url(#SVGID_2_)" d="M536.1 132.7h54.2v54.2h-54.2z"/><path class="st5" d="M608.7 132.7h54.2v54.2h-54.2zm-217.9 67.8H445v54.2h-54.2zm72.6 0h54.2v54.2h-54.2zm72.7 0h54.2v54.2h-54.2zm72.6 0h54.2v54.2h-54.2zm-217.9 67.9H445v54.2h-54.2zm-73-135.7H372v54.2h-54.2zm0 67.8H372v54.2h-54.2zm0 67.9H372v54.2h-54.2zm145.6 0h54.2v54.2h-54.2zm72.6 0h54.2v54.2H536zm72.7 0h54.2v54.2h-54.2z"/><path class="st6" d="M317.8 132.7h9.5v9.5h-9.5zm290.9 0h9.5v9.5h-9.5zm-217.8 67.8h9.5v9.5h-9.5zm72.6 0h9.5v9.5h-9.5zm-145.7 0h9.5v9.5h-9.5zm290.9 0h9.5v9.5h-9.5zm-72.6 0h9.5v9.5h-9.5zm-145.2 67.9h9.5v9.5h-9.5zm72.6 0h9.5v9.5h-9.5zm-145.7 0h9.5v9.5h-9.5zm290.9 0h9.5v9.5h-9.5zm-72.6 0h9.5v9.5h-9.5z"/><path class="st8" d="M691.2 132.7h345.2v541.9H691.2z"/><path class="st9" d="M708.6 159.8h44.9v10.3h-44.9z"/><path class="st10" d="M767.2 177.6H815v204.6h-47.8zm63 0H878v372.7h-47.8z"/><linearGradient id="SVGID_3_" gradientUnits="userSpaceOnUse" x1="854.098" y1="462.041" x2="854.098" y2="177.637"><stop offset=".15" stop-color="#00adf2"/><stop offset=".551" stop-color="#27b8f3"/><stop offset="1" stop-color="#4ec4f4"/></linearGradient><path fill="url(#SVGID_3_)" d="M830.2 177.6H878V462h-47.8z"/><path class="st10" d="M893.2 177.6H941V418h-47.8z"/><linearGradient id="SVGID_4_" gradientUnits="userSpaceOnUse" x1="917.09" y1="241.298" x2="917.09" y2="177.637"><stop offset=".15" stop-color="#00adf2"/><stop offset=".551" stop-color="#27b8f3"/><stop offset="1" stop-color="#4ec4f4"/></linearGradient><path fill="url(#SVGID_4_)" d="M893.2 177.6H941v63.7h-47.8z"/><path class="st10" d="M956.2 177.6h47.8v159.3h-47.8z"/><linearGradient id="SVGID_5_" gradientUnits="userSpaceOnUse" x1="980.082" y1="288.802" x2="980.082" y2="177.637"><stop offset=".15" stop-color="#00adf2"/><stop offset=".551" stop-color="#27b8f3"/><stop offset="1" stop-color="#4ec4f4"/></linearGradient><path fill="url(#SVGID_5_)" d="M956.2 177.6h47.8v111.2h-47.8z"/><linearGradient id="SVGID_6_" gradientUnits="userSpaceOnUse" x1="791.106" y1="291" x2="791.106" y2="177.637"><stop offset=".15" stop-color="#00adf2"/><stop offset=".551" stop-color="#27b8f3"/><stop offset="1" stop-color="#4ec4f4"/></linearGradient><path fill="url(#SVGID_6_)" d="M767.2 177.6H815V291h-47.8z"/><path class="st9" d="M708.6 187h44.9v10.3h-44.9zm0 27.1h44.9v10.3h-44.9zm0 27.2h44.9v10.3h-44.9zm0 27.2h44.9v10.3h-44.9zm0 27.1h44.9v10.3h-44.9zm0 27.2h44.9v10.3h-44.9zm0 27.1h44.9v10.3h-44.9zm0 27.2h44.9v10.3h-44.9zm0 27.1h44.9v10.3h-44.9zm0 27.2h44.9v10.3h-44.9zm0 27.2h44.9v10.3h-44.9zm0 27.1h44.9V496h-44.9zm0 27.2h44.9v10.3h-44.9zm0 27.1h44.9v10.3h-44.9zm0 27.2h44.9v10.3h-44.9zm0 27.2h44.9v10.3h-44.9zm0 27.1h44.9v10.3h-44.9zm0 27.2h44.9V659h-44.9z"/><path class="st8" d="M653.4 667.5H323.3c-4.1 0-7.5-3.4-7.5-7.5V485.1c0-4.1 3.4-7.5 7.5-7.5h330.1c4.1 0 7.5 3.4 7.5 7.5v174.8c0 4.2-3.3 7.6-7.5 7.6z"/><path d="M457 504.7h184.8V515H457zm0 30.5h184.8v10.3H457zm0 30.6h184.8v10.3H457zm-107 30.5h291.8v10.3H350zm0 30.5h291.8v10.3H350z" fill="#f3f4f9"/><ellipse transform="rotate(-80.752 398.858 541.568)" class="st6" cx="398.8" cy="541.6" rx="42.8" ry="42.8"/><path class="st16" d="M921.2 748.8l-14.9 6.6-23.8 6.1c-3.1.7-5.2 3.4-5.2 6.6l69.4-.3-1.7-12.2-9.9-6.8h-13.9z"/><path class="st1" d="M914.4 760.8l-8-5.4-23.3 3.9c-3.1.7-5.7 5.6-5.7 8.7l69.4-.3-1.7-12.2-5.7 5-9.9-.1c-4.6 1-11.1 2.6-15.1.4z"/><path class="st16" d="M942.1 755.6l-20.9-5.3v-28.8h20.9z"/><path class="st17" d="M1089.7 669.3s-132.5-47.9-147.9-42c0 0-19.8 0-24 31.4l.8 67.9h26l6.8-51.8c1.1-3.3 4.9-4.8 7.9-3.1l80.1 44.6 50.3-47z"/><path class="st17" d="M1018.9 681.5l-80.1 49.4c-4.8 2.9-7.7 8.1-7.7 13.7v4.7c0 10.4 8.4 18.8 18.8 18.8l108.8-5.4V731s33.4-13 31.7-40.8l-71.5-8.7z"/><path class="st16" d="M1064.6 728.2l54.7 39.9-60.5-5.4V731z"/><path class="st1" d="M1064.6 728.2l-5.8 2.8v13.6c3.7-1.8 8-1.6 11.5.5l26.9 20.5c2.1 1.6 4.7 2.5 7.4 2.5h14.8l-54.8-39.9z"/><path class="st16" d="M1019.3 498.2s4.3 24.9-5.7 39.6l35.2-3.3-14.1-44.8-15.4 8.5z"/><path d="M1038.5 497c-.5-2.9-1.7-5.5-3-8.1-3.8-7.9-8-16.1-15.1-21.2-3.1-2.2-6.8-3.8-9.6-6.4-.7.4-1.4.8-2.1 1.3l-3.8.7c-3.8.7-7.2 3.3-8.6 6.9-1.4 3.6-.6 8 2.2 10.6 1.7 1.6 3.9 2.5 5.9 3.6 4.3 2.4 8 6.1 10.3 10.5.8 1.6 1.5 3.3 2.5 4.7 3.2 4.5 9.1 5.9 14.5 7 1 .2 2.1.4 3.1.1.7-.2 1.4-.8 1.9-1.4 1.8-2.3 2.2-5.5 1.8-8.3z" fill="#fec55e"/><path class="st16" d="M1037.4 482.5c-4-4.4-8.1-8.8-12.6-12.6-1.3-1.1-2.8-2.3-4.5-2.8-1.7-.5-3.4-.4-5.1-.2-1.4.2-2.5.1-3.4 0-3.5-.4-7 1-9.5 3.5-2.5 2.6-2.8 6.4-1.1 9.5 2.4 4.4-2.7 10.7-2 15.6.1 1 4.2 1 4.4 2 .5 3.4 1 6.8 2.5 9.9 1.4 3.1 4 5.9 7.3 6.8 3.7 1 7.7-.5 11-2.4 4.8-2.6 9.1-6 12.8-10 3.1-3.3 5.9-7.7 4.9-12.2-.7-2.7-2.7-4.9-4.7-7.1z"/><path class="st1" d="M1064.1 545.8c-7.3 22.7 33.7 144.7 33.7 144.7-17.6 23.2-59.9-9.3-87.2-3.4 0 0 .3-51.2-10-74.2l-13.9-22.7c-3.1-5.1-2.9-11.6.7-16.5l26.3-36 37.6-14.3c3.2-1.2 6.7-.3 8.9 2.3 4.6 5.7 6.1 13.2 3.9 20.1z"/><linearGradient id="SVGID_7_" gradientUnits="userSpaceOnUse" x1="1015.531" y1="455.492" x2="1092.656" y2="577.269"><stop offset="0" stop-color="#fec55e"/><stop offset="1" stop-color="#ff5722"/></linearGradient><path d="M1071 553.5c.7-16.9-5.4-33.3-5.8-50.2-.3-13.1 2.3-27.6-5.4-38.2-6.4-8.7-18.1-11.7-28.9-11.9-5.3-.1-10.7.3-15.6 2.3-3 1.2-5.9 3.2-8.2 5.5-1.3 1.3-2.7 2.4-2 4.1.6 1.5 3.2 2.8 4.5 3.4 2 .7 4.1.9 6.1 1.5 4.8 1.4 5.1 4.9 5.7 9.2.7 5.1 1.2 10.2 1.3 15.3.1 2 .1 4.1.4 6 .2 1 .5 2 .9 2.9 1.5 3.4 4.7 5.7 7.6 8.1 2.3 1.9 5.3 4.5 6 7.6.8 3.6-.6 7.5.4 11.2 1.6 6.1 7 10.2 11 15 5.9 7.2 8.7 16.6 9.5 25.8.8 9.3 8.5 20.8 10 27.9 6.4-14.5 1.8-29.5 2.5-45.5z" fill="url(#SVGID_7_)"/><path class="st16" d="M878 520.6l15.5 19.9c.4.5.7 1.1.9 1.7l6 17.4 57.3 34.4 71.3-30.9c6.3-2.7 13.7-.3 17.2 5.6 4.2 7.2 1 16.5-6.8 19.5l-76.3 30.1c-3.1 1.2-6.5.7-9.1-1.3l-61.6-47.7h-.5c-3.4 0-6.4-2.3-7.2-5.6l-2.1-7.7s-2.6-4.3-1.7-8.8c.7-3.4 2.8-10.1 2.8-10.7l-10.4-14.8.9-1.6c1.1-.8 2.9-.6 3.8.5z"/><path class="st1" d="M1050.2 566.1c-3.7-6.4-11.6-9-18.4-6.1l-39.1 13.5c-3.7 8 14.7 20.1 13.2 32.8l37.2-19.3c8.2-3.2 11.6-13.2 7.1-20.9z"/><path class="st5" d="M317.8 337H659v121.4H317.8z"/><path class="st4" d="M331.2 350.2h97.3v95.1h-97.3zm110.7 12.9h206.3v16H441.9zm.3 26.9h206.3v16H442.2zm.4 26.9h111v16h-111z"/><path opacity=".12" fill="#231f20" d="M262.2 398.4h38.9v127.7h-38.9z"/><path class="st16" d="M454.3 223.1c1-3.5 3.2-6.8 6.5-8.3l-4.4-3.7c1.9.1 3.9.2 5.8.8 1.9.6 3.6 1.5 5.3 2.4 2.6 1.3 4 1.5 5.3 4.3 1.4 2.9 2.8 5.9 4.2 8.8.6 1.3 1.2 2.6 1.6 3.9.6 2 2.9 4.1 3.1 6.2.1 1.7-1.9 3.5-1.8 5.2.1 1.5.2 3.1.1 4.7-.2 2-.8 3.8-1.5 5.7-1.1 3.3-2.2 8.1-5.2 10.2-3.1 2.3-6.5 4.3-10.5 4.3-.9 0-1.8-.1-2.5-.6s-1.1-1.3-1.5-2.1c-4.5-9.6-4.9-20.5-5.2-31.1-.2-3.5-.3-7.2.7-10.7zm86.1 67.9l17.2-23.6c1.4-1.9 2.3-4.1 2.7-6.5l10.9-65.4h-15.1l-16.6 53.9c-1.2 3.8-3.4 7.2-6.4 9.8l-13.6 11.6 20.9 20.2zm-181.8 52.9l-17.4 24.4c-4.1 5.7-4.4 13.3-.9 19.3l50.1 85.3 9.7-11.7-32.4-69.9c-2.9-6.2-1.9-13.5 2.5-18.8l15-17.9-26.6-10.7z"/><path class="st16" d="M398.3 457.3l8 15.7v17.8L387.5 502c-2.7-3.9-2.1-9.3 1.5-12.4l1.4-1.2.1-15.3 7.8-15.8zm-10.8 283.1h20.2v16.9h-20.2z"/><path class="st21" d="M391.6 752H408l3.1 9.2v4.4c0 2.5-2 4.4-4.4 4.4h-17.1l-18.1-6.8v-3.1c0-5.1 2.5-9.9 6.6-12.9l9.5-6.8v10.9l4 .7z"/><path class="st4" d="M406.6 763.9h-17.1l-17.8-6.7c-.2 1-.3 1.9-.3 2.9v3.1l18.1 6.8h17.1c2.5 0 4.4-2 4.4-4.4v-4.4l-.2-.6c-.4 1.9-2.1 3.3-4.2 3.3z"/><path transform="rotate(-180 502.455 748.796)" class="st16" d="M492.4 740.4h20.2v16.9h-20.2z"/><path class="st22" d="M503.8 472.7s4.3 29.3 7.7 57.7c.7 6.1 1.1 12.3 1.1 18.5v196h-20.2s-15.6-68.3-18.7-113.8c-.8-12.1-2.9-24-5.5-35.8L447 500v-23.3l56.8-4z"/><path class="st22" d="M396.1 480.2s-4.5 25.3-7.9 53.9c-.4 3.6-.7 7.2-.7 10.9v199.9l20.1.4s17.2-65.5 19.4-115.6c.3-8 1.8-15.8 3.5-23.6l22.6-77v-52.5l-57 3.6z"/><path class="st21" d="M508.4 752H492l-3.1 9.2v4.4c0 2.5 2 4.4 4.4 4.4h17.1l18.1-6.8v-3.1c0-5.1-2.5-9.9-6.6-12.9l-9.5-6.8v10.9l-4 .7z"/><path class="st4" d="M493.4 763.9h17.1l17.8-6.7c.2 1 .3 1.9.3 2.9v3.1l-18.1 6.8h-17.1c-2.5 0-4.4-2-4.4-4.4v-4.4l.2-.6c.5 1.9 2.1 3.3 4.2 3.3z"/><linearGradient id="SVGID_8_" gradientUnits="userSpaceOnUse" x1="446.929" y1="269.615" x2="446.929" y2="499.674"><stop offset=".15" stop-color="#00adf2"/><stop offset=".551" stop-color="#27b8f3"/><stop offset="1" stop-color="#4ec4f4"/></linearGradient><path d="M431.2 284.6l-22.6 7c-8.2 2.6-15.7 7.3-21.4 13.7l-34.9 38.9 33.5 19.6 11.9-17.4s2.4 104.5-3.2 140.7c0 0 68.8 28 114.3 0 0 0-17.1-92.2-3.1-138l35.9-57-22-22.5-34.3 17.8-7.9-2.7h-46.2z" fill="url(#SVGID_8_)"/><path class="st16" d="M572.6 191.4l2.5-11.9c.4-1.7-.3-3.4-1.6-4.5l-6.1-5h-4.7s2.4-12.8 1.5-20.4h-1.5l-8.1 27.2v15.7l2.7 5.7h12.9l2.4-6.8zm-95.3 93.2s-9.6-7.2-9.6-18.1h-29s-.6 15-7.5 18.1h46.1z"/><path class="st1" d="M425.9 240c.5-3.2-.4-6.4-.6-9.6-.4-4.6.4-9 2.5-13.1 1.7-3.3 3.6-6.5 6.4-8.9 5.4-4.7 13-5.7 20.1-5.6 2.2 0 4.4.1 6.4 1 1.6.7 3 1.7 4.6 2.2 1.1.3 2.2.4 3.3.7 1.5.4 2.9 1.1 4.3 1.8 1.4.8 2.8 1.7 3.8 3 1 1.4 1.3 3.3.3 4.8s-2.2 1.2-3.7 1.6c-2.9.9-7.4 3.4-8 6.6-.4 2.5 1.3 4.8 2.9 6.7 1.6 1.9 3.3 4.2 2.9 6.7-.1.4-.2.8-.5 1-.6.5-1.5.1-2.3.3-1 .2-1.7 1.1-1.9 2.1-.7 3.4.1 6.8-.3 10.2-.4 3.6-2.4 7-4.1 10.2-1.1 2-2.1 4.1-3.8 5.6-1.5 1.4-3.4 2.3-5.2 3-5.3 2.1-10.9 3.2-16.6 3.3-10.2.2-8-9.1-11.1-15.7-.7-1.5-1.8-2.9-2.2-4.5-1.4-4.3 2.1-8.7 2.8-13.4z"/><path class="st4" d="M101.2 619.1h253.7v149.6H101.2z"/><path fill="#e0e4f0" d="M101.2 619.1h253.7v33.4H101.2z"/><linearGradient id="SVGID_9_" gradientUnits="userSpaceOnUse" x1="224.959" y1="744.067" x2="224.959" y2="684.023"><stop offset=".15" stop-color="#00adf2"/><stop offset=".551" stop-color="#27b8f3"/><stop offset="1" stop-color="#4ec4f4"/></linearGradient><path d="M110.2 744.1h229.7c-.4 0 .6-54.6-.1-60-8.3 4.4-14.7 12.8-23.6 17.2-7.1 3.5-15.7 5.7-23.7 4.3-7.5-1.3-13.6-6.9-21.2-7.4-10-.7-16.7 7.4-23.8 13-10 7.8-22.7 17.3-35.5 19.3-8.3 1.3-15-2.5-20.2-8.7-6.7-8.1-10.1-15.5-21.4-17-8.8-1.2-18.8 1-25.8 6.5-8.7 6.8-13.9 17.9-23.9 22.6-3.5 1.7-2.9 2.3-6.7 2-2.5-.2-.9-3.7-3.2-1.7-1.7 1.3-.6 7.6-.6 9.9z" fill="url(#SVGID_9_)"/><path class="st16" d="M193.6 752h42.5l-15.4-10.6-3.4-9.9h-23.7zM45.2 732.4l36.9 18.4-7.3-17.2 2.3-10.2-20-12.6z"/><path class="st1" d="M45.8 724.3l-8.4 16.1c-1.6 3.2-.1 7.1 3.3 8.2l52.9 18h23.9s2.6-2.1 3.4-5.6l-27.4-12.8-12.4-17.1-11.6 8.1-16.5-5.6-7.2-9.3z"/><path class="st26" d="M36.7 738.4l-2.7 4.7c-1 1.8-.3 4 1.6 4.8l52 20.8h25.6c4.2 0 7.7-3.4 7.7-7.7H85.1l-48.4-22.6z"/><path class="st1" d="M190.1 739v18.7c0 3.5 2.8 6.3 6.3 6.3h59.1l24.8-4.3c-1.4-3.6-4.4-6.3-8.1-7.5l-25.7-8.1-19.2-12.6-7.3 15.4h-21.3l-8.6-7.9z"/><path class="st26" d="M196.1 768.7h75.2c5 0 9-4 9-9h-91.9v1.3c0 4.2 3.4 7.7 7.7 7.7z"/><linearGradient id="SVGID_10_" gradientUnits="userSpaceOnUse" x1="50.677" y1="615.604" x2="140.337" y2="615.604"><stop offset=".15" stop-color="#00adf2"/><stop offset=".551" stop-color="#27b8f3"/><stop offset="1" stop-color="#4ec4f4"/></linearGradient><path d="M78.6 500.4l-2.5 18.4c-2 14.8-1.6 29.7 1.3 44.4l9.9 51.3c2.2 11.3.9 23.1-3.7 33.7l-32.9 70.4 26.6 12.3 45.6-82.3c1.5-2.8 2.5-5.9 2.9-9l14.6-134.9-61.8-4.3z" fill="url(#SVGID_10_)"/><linearGradient id="SVGID_11_" gradientUnits="userSpaceOnUse" x1="110.824" y1="620.852" x2="219.393" y2="620.852"><stop offset=".15" stop-color="#00adf2"/><stop offset=".551" stop-color="#27b8f3"/><stop offset="1" stop-color="#4ec4f4"/></linearGradient><path d="M181 511.6s14 42.8 22 92.6c8 50.3 10 107.7 16.4 127.7h-28s-19-60-20.6-105.3c-.3-7.9-3-15.5-7.6-22-16.5-22.8-53.7-76.6-52.3-94.9l70.1 1.9z" fill="url(#SVGID_11_)"/><path class="st16" d="M135.9 392.8l-42.6.2 6.8-111.4h25.3c3.1 0 6.4-1.1 9.4-.8-2.3 1.3-3.7 3.9-4.3 6.6-.6 3-.5 8.6-.3 11.9.2 3.4 10.2 18.6 10.2 21.6-.1 3.8-4.5 68.2-4.5 71.9z"/><path class="st4" d="M98.5 308.8c-2 33-5.1 84.2-5.1 84.2l42.6-.2c0-3.7 4.4-68.1 4.4-71.8 0-1.3-1.7-4.6-3.7-8.4-14.9 6.9-30.4.5-38.2-3.8z"/><path class="st4" d="M0 391.9h292.4v127.7H0z"/><path class="st16" d="M141.5 282.3c-3 3.3-9.6 4-14 4.3-9.8.7-19.9 0-29.7 0v-51.9h47.7c-.3 0-.2 5.5.1 11.5.2 5.1 4.8 17 4.9 19.9 0 .9-4.3 1.6-4.3 1.9l-4.7 14.3z"/><path class="st21" d="M149.8 228.5c-2.2-2.8-6.2-3.4-9.8-3.1-3.6.2-7.3 1-10.7-.1-3.5-1.2-6.5-4.3-10.2-4.2-5 .2-8.2 6.2-13.2 6.9-3.7.5-7.7-2.1-11.2-.6-3.4 1.4-4.3 5.7-4.1 9.3.2 3.6 1 7.5-.5 10.8-1.2 2.6-3.8 4.6-4.3 7.4-1 5.3 5.5 9.2 6.2 14.5.5 3.3-1.3 6.4-1.9 9.6-.5 2.8.7 6.3 3 7.2H93c2.4 2 6.2 1.1 8.4-1.1s3.1-5.3 3.9-8.3c.7-2.5 1.4-5.1 1.4-7.7 0-4.9-2.6-10.3.1-14.4 1.8-1 4.1.6 4.8 2.5.8 1.9.7 4.1 1.3 6 .6 2 2.5 3.9 4.5 3.4 2.5-.6 2.7-4 2.3-6.5-.4-2.5-.5-5.8 1.8-6.8 1.8-.8 4.2.4 5.7-.8 1.4-1.1 1.1-3.2 1.6-4.9.8-2.8 3.7-4.3 6.5-4.9 2.8-.6 5.7-.4 8.5-1.3 5.4-1.7 9.3-8.6 6-12.9z"/><path class="st1" d="M100.1 288.8l-4.2 2.2-2.6 4.4c-3 5-7.4 9-12.8 11.4l-4.5 2c-9.9 4.5-17.2 13.3-19.8 23.8l-8.1 33.2c-5.6 22.8-6.6 46.5-3.1 69.8l8.4 54.9h22.8l1.4-81.8c.1-4.3.5-8.6 1.3-12.8l.5-2.9 53.2-.3s-5.3-66.6-16.8-75.4l4.7-3.6-10.5-4.5c-3.3-1.4-5.6-4.3-6.3-7.8-.3-1.3-.5-2.6-.8-3.7l-2.8-8.9z"/><path class="st1" d="M130.1 299.4l4.6 2.2 16.9 10.8c6 3.8 11 8.9 14.7 15 9.3 15.2 25.9 45.2 24.9 64.5l-58.6.9s-3.7-44.9 2.1-64.2c1.4-4.8 1.4-9.9-.1-14.6l-4.5-14.6z"/><path class="st16" d="M138.9 393.4l.5-5.2c.4-3.1 3.1-5.5 6.3-5.3l1.2 2.1 21.6-.4c3-.1 5.3 2.8 4.5 5.7l-1 4c-.5 2.1-2.3 3.5-4.5 3.5h-1.8c0 3.4-2.7 6.2-6.1 6.2h-8c-3.4 0-6.1-2.8-6.1-6.1v-5l-6.6.5z"/><path class="st29" d="M25.6 408.2H35v95h-9.4zm16.7 0h9.4v95h-9.4z"/><path fill="#e6e7e8" d="M59 408.2h9.4v95H59z"/><path class="st29" d="M75.6 408.2H85v95h-9.4zm16.7 0h9.4v95h-9.4zm16.7 0h9.4v95H109zm16.7 0h9.4v95h-9.4zm16.7 0h9.4v95h-9.4zm16.6 0h9.4v95H159zm16.7 0h9.4v95h-9.4zm16.7 0h9.4v95h-9.4z"/><path class="st31" d="M25.6 479.5H35v23.7h-9.4zm16.7-23.8h9.4v47.5h-9.4z"/><path fill="#e03c00" d="M59 455.7h9.4v47.5H59z"/><path class="st31" d="M75.6 425.6H85v77.6h-9.4zm16.7 15.9h9.4v61.7h-9.4zm16.7 40.2h9.4v21.5H109zm16.7-40.2h9.4v61.7h-9.4zm16.7 33.2h9.4v28.5h-9.4zm16.6-19h9.4v47.5H159zm16.7-18h9.4v65.5h-9.4zm16.7-8.9h9.4v74.4h-9.4z"/><path class="st1" d="M100.1 288.8l-4.2 2.2-7.2 12.2-12.7 5.7c-9.9 4.5-17.2 13.3-19.8 23.8l-8.1 33.2c-5.6 22.8-6.6 46.5-3.1 69.8l8.4 54.9h22.8l1.4-81.8c.2-4.3 4.4-28.8 4.4-28.8l18.1-91.2z"/><path class="st16" d="M57.8 490.6l-2.2 30.3c.7 3.2 3.1 5.8 6.3 6.6l.8.2 17.3 1.2c3 .2 5.8-1.2 7.4-3.7l1.3-2c1.1-1.7 1.7-3.8 1.7-5.9v-3.7c0-4.3-1.8-8.5-5.1-11.4l-10.9-9.8v-1.9H57.8z"/><path fill="#f3b199" d="M212.8 413.4h60.8v9.4h-60.8z"/><path d="M212.8 439.6h60.8v4.7h-60.8zm0 11.4h60.8v4.7h-60.8zm0 11.5h60.8v4.7h-60.8zm0 11.5h30.4v4.7h-30.4z" fill="#f0f1fe"/></g></svg>